<svg version="1.1" xmlns="http://www.w3.org/2000/svg" xmlns:xlink="http://www.w3.org/1999/xlink" x="0px" y="0px" viewBox="0 0 1000 1000" fill="#808080" xml:space="preserve">
<metadata> Svg Vector Icons : http://www.onlinewebfonts.com/icon </metadata>
<g><g transform="translate(0.000000,512.000000) scale(0.100000,-0.100000)"><path d="M4724.3,4991.6c-727.5-157-1135.3-961.1-1173.6-2318.5l-11.5-407.8H5000h1460.8l-11.5,407.8c-28.7,1028.1-260.4,1719.2-695,2083C5482.5,4984,5097.6,5070.1,4724.3,4991.6z"/><path d="M3516.3,1911.2l-47.9-45.9V-951v-2816.2l47.9-46l45.9-47.9H5000h1437.8l46,47.9l47.9,46V-951v2816.2l-47.9,45.9l-46,47.9H5000H3562.2L3516.3,1911.2z"/><path d="M3363.1-4215.2c-45.9-44-47.9-59.3-47.9-258.5c0-199.1,1.9-214.4,47.9-258.5l45.9-47.9h1591h1590.9l46,47.9c45.9,44,47.9,59.3,47.9,258.5c0,199.1-1.9,214.4-47.9,258.5l-46,47.9H5000H3409L3363.1-4215.2z"/></g></g>
</svg>